<svg xmlns="http://www.w3.org/2000/svg" viewBox="0 0 3837.51 1345.77"><defs><style>.cls-1{fill:#4abab3;}.cls-2{fill:#157a68;}</style></defs><g id="Capa_2" data-name="Capa 2"><g id="Capa_1-2" data-name="Capa 1"><path class="cls-1" d="M3260.6,595.82q-31.3,0-62.61,0c-49,0-91.8-32.1-106.57-79.89-14.38-46.54,3.14-97.56,42-125.51,19.92-14.32,41.58-21.5,65.92-21.46,35.84.05,71.73-1.12,107.52.21,84.93,3.13,153.13,40.76,206.3,105.61,41.1,50.13,60,109,61,173.58.47,32.21.29,64.43,0,96.63-.48,59.58-49.62,109.52-111.93,110.73-60.36,1.17-110.74-45.07-114.91-103-3.42-47.58-1.07-95.19-1.38-142.78-.07-11.41-3.34-14.76-14.6-14.38C3307.8,596.39,3284.19,595.83,3260.6,595.82Z"/><path class="cls-2" d="M3577.33,287.61c0,22.24.78,44.52-.3,66.72-.61,12.58,3.94,15,15.48,14.86,41.76-.64,83.53-.39,125.3-.21,68.66.3,115.6,44.82,119.56,113.14,3.18,54.79-48.51,112.17-103.58,113.46-40.37.95-80.8.28-121.2-.28-23.27-.32-22.87-1-29.57-23.4Q3533,404.37,3364.2,358c-8.94-2.44-13.18-6.17-13.17-15.47,0-44.48-2.14-89.05.09-133.41,3.29-65.55,76.19-114.48,140.37-96.38,52.59,14.83,84.74,56.19,85.74,110.83.38,21.33.06,42.67.06,64Z"/><path class="cls-2" d="M1551.79,611c4.28-29.88,12.82-102.44,23.49-217.69-19.21,66.15-51.23,177.14-98.18,330.81C1428,869.21,1368.25,984.48,1297.82,1072s-134.46,125.92-196.36,115.25c-111-19.21-136.59-190-119.52-565.59,6.4-121.66,8.55-217.69,6.4-292.4C954.19,532,890.17,728.35,794.12,918.31q-118.46,236.91-300.93,345.76c-121.65,74.7-236.9,98.17-347.89,70.42C57.8,1311,.18,1236.32.18,1165.88c-4.28-83.23,70.42-87.5,70.42-74.7q-9.6,166.48,96.05,198.49c76.84,23.48,162.2,2.14,254-68.3,93.9-68.29,177.15-168.6,249.7-303.06C760,751.84,832.55,589.62,885.9,429.55q83.24-240.09,70.44-377.76V39c-2.15-10.65,0-14.93,6.4-17.07,79-27.73,136.59-29.88,172.87-2.13,53.37,40.55,64,198.49,32,469.54-55.5,461-34.15,567.72,36.28,578.4,57.62,10.67,138.74-128.05,215.56-347.89q54.42-150.48,102.45-358.56c32-138.73,49.09-245.44,49.09-318,0-6.4,0-12.81,2.13-14.93,0-6.42,2.14-10.68,8.55-12.82,49.07-19.2,136.59-17.08,170.74,10.67,49.08,44.82,47,202.77-6.4,469.55-42.7,211.3-53.37,388.44-42.7,490.89,23.48,160.07,76.85,217.69,117.4,222,49.08,8.53,104.57-53.35,119.52-104.59,2.12-6.4,6.4-4.26,14.93,4.27,10.67,10.68,8.54,29.88-2.13,57.63-36.28,83.24-134.47,160.08-256.12,136.59C1543.26,1276.87,1494.17,1046.36,1551.79,611Z"/><path d="M2031.56,798.8v50.47h127.1v49h-127.1V953.9h140.37v49H1977V749.8h194.89v49Z"/><path d="M2344.34,749.8H2435c85.1,0,145.52,52.31,145.52,126.36S2520.07,1002.9,2435,1002.9h-90.63ZM2442,953.53c48.26,0,82.52-32,82.52-77.37,0-44.94-34.26-77-82.52-77H2398.5V953.53Z"/><path d="M2752.16,749.8h54.53v253.1h-54.53Z"/><path d="M2969.52,965.32l31.31-37.21c24,20.63,51.21,33.16,83.26,33.16,27.27,0,41.27-12.53,41.27-28.37,0-18-14.74-23.58-53.42-32.42-53.42-12.16-91.37-27.26-91.37-76.26,0-46.79,38.32-78.84,93.58-78.84,41.26,0,73.31,12.89,99.1,35l-28.37,39c-22.47-18-47.89-28-72.21-28-23.21,0-37.2,12.16-37.2,27.26,0,18.42,15.1,24.32,54.15,33.16,54.53,12.16,90.63,28.37,90.63,75.15,0,48.26-36.47,80.32-98.37,80.32C3038,1007.32,2999,992.58,2969.52,965.32Z"/></g></g></svg>